<svg xmlns="http://www.w3.org/2000/svg" width="24" height="24" viewBox="0 0 24 24"><g><path d="M1 0c-.553 0-1 .448-1 1v22c0 .553.447 1 1 1s1-.447 1-1v-22c0-.552-.447-1-1-1zM20.803 2.796c-.123-.094-.283-.125-.434-.086-.031.008-3.088.83-5.45.83h-.001c-.811 0-1.436-.095-1.854-.283-.5-.224-.564-.522-.564-.757 0-.685-.352-1.833-2.703-1.833-2.576 0-6.307 1.306-6.463 1.361-.201.071-.334.26-.334.472v12c0 .162.078.314.211.408s.303.118.455.063c.037-.012 3.725-1.304 6.131-1.304 1.703 0 1.703.627 1.703.833 0 .938.602 2.055 3.473 2.055 2.488 0 5.527-.803 5.656-.836.219-.059.371-.257.371-.484v-12.041c0-.157-.072-.303-.197-.398z"/></g></svg>